<svg height="426pt" viewBox="-29 0 426 426" width="426pt" xmlns="http://www.w3.org/2000/svg"><path d="m304.78125 74h51.820312l-60.601562-62.140625v53.640625c0 4.574219 4.203125 8.5 8.78125 8.5zm0 0"/><path d="m280 65.5v-65.5h-167.519531c-12.128907 0-22.480469 10-22.480469 22.132812v311.46875c.207031 12.3125 10.164062 22.234376 22.480469 22.398438h233.039062c12.316407-.164062 22.273438-10.085938 22.480469-22.398438v-243.601562h-63.21875c-13.398438 0-24.78125-11.101562-24.78125-24.5zm-51 92.730469c-17.863281-.003907-32.949219-13.273438-35.230469-30.992188-2.28125-17.714843 8.949219-34.375 26.230469-38.902343v-11.335938c0-4.417969 3.582031-8 8-8s8 3.582031 8 8v10.875c16.578125 3.355469 28.5 17.914062 28.523438 34.824219 0 4.417969-3.582032 8-8 8-4.417969 0-8-3.582031-8-8 0-10.78125-8.742188-19.523438-19.527344-19.519531-10.78125 0-19.523438 8.742187-19.519532 19.523437 0 10.785156 8.742188 19.523437 19.523438 19.523437 18.257812.003907 33.539062 13.84375 35.347656 32.007813 1.808594 18.167969-10.449218 34.746094-28.347656 38.347656v9.417969c0 4.417969-3.582031 8-8 8s-8-3.582031-8-8v-9.882812c-15.613281-4.109376-26.503906-18.21875-26.523438-34.363282 0-4.421875 3.582032-8 8-8 4.417969 0 8 3.578125 8 8-.003906 10.78125 8.738282 19.523438 19.523438 19.523438 10.78125 0 19.523438-8.742188 19.523438-19.523438 0-10.785156-8.738282-19.527344-19.523438-19.527344zm-96.320312 92.769531h112.320312c4.417969 0 8 3.582031 8 8s-3.582031 8-8 8h-112.320312c-4.417969 0-8-3.582031-8-8s3.582031-8 8-8zm195.621093 52c0 4.417969-3.582031 8-8 8h-187.621093c-4.417969 0-8-3.582031-8-8s3.582031-8 8-8h187.621093c4.417969 0 8 3.582031 8 8zm0 0"/><path d="m74 333.601562v-263.601562h-51.519531c-12.316407.164062-22.273438 10.085938-22.480469 22.398438v311.46875c0 12.132812 10.351562 22.132812 22.480469 22.132812h233.039062c12.128907 0 22.480469-10 22.480469-22.132812v-31.867188h-165.519531c-20.953125 0-38.480469-17.449219-38.480469-38.398438zm0 0"/></svg>