<svg width={size} height={size} viewBox="0 0 93.138 93.138">
	<g fill="#fff">
		<path d="m88.895 63.415h-14.405v-5.062c0-1.627-0.933-3.111-2.396-3.82-0.588-0.285-1.221-0.424-1.848-0.424-0.939 0-1.869 0.311-2.636 0.914l-2.983 2.361-8.97-4.131-4.946-4.17-8.502 8.454-8.523-8.454-4.947 4.17-10.299 4.741c-1.523 0.625-2.875 1.705-3.781 3.228l-14.659 24.509h63.504l4.109 3.252c1.274 1.008 3.016 1.201 4.481 0.492 1.463-0.709 2.396-2.193 2.396-3.82v-5.066h14.404c2.344 0 4.243-1.897 4.243-4.244v-8.686c1e-3 -2.344-1.899-4.244-4.242-4.244zm0 12.93h-18.649v9.311l-17.254-13.653 17.254-13.649v9.307h18.648v8.684z"/>
		<path d="m42.144 50.103v2e-3c8e-3 0 0.02-2e-3 0.029-2e-3 4e-3 0 0.012 2e-3 0.02 2e-3h6e-3 8e-3c6e-3 0 0.014-2e-3 0.02-2e-3 0.01 0 0.02 2e-3 0.029 2e-3v-2e-3c12.004 0.182 19.301-10.324 19.49-27.646 0.121-12.018-7.332-18.889-19.469-19.213v-5e-3c-0.02 0-0.033 2e-3 -0.051 2e-3v-2e-3c-0.012 0-0.02 0-0.027 2e-3 -8e-3 -2e-3 -0.018-2e-3 -0.026-2e-3v2e-3c-0.02 0-0.033-2e-3 -0.049-2e-3v4e-3c-12.139 0.324-19.592 7.195-19.471 19.213 0.188 17.322 7.485 27.828 19.491 27.647z"/>
	</g>
</svg>
